<svg>
<circle cx="367" cy="859" r="16" fill="#FCA311"/>
<circle cx="367" cy="859" r="16" fill="url(#paint12_linear_0_1)"/>
<path d="M362.193 863V860.012L359.373 854.6H361.113L362.973 858.476L364.821 854.6H366.537L363.729 860.012V863H362.193ZM369.477 863V855.836H367.029V854.6H373.473V855.836H371.013V863H369.477Z" fill="white"/>
<circle cx="407" cy="859" r="16" fill="#FCA311"/>
<circle cx="407" cy="859" r="16" fill="url(#paint13_linear_0_1)"/>
<path d="M402.929 863V854.6H404.465V861.8H408.185V863H402.929ZM409.539 863V854.6H411.075V863H409.539Z" fill="white"/>
<circle cx="327" cy="859" r="16" fill="#FCA311"/>
<circle cx="327" cy="859" r="16" fill="url(#paint14_linear_0_1)"/>
<path d="M320.816 863V854.6H322.352V863H320.816ZM327.652 863.144C326.86 863.144 326.168 862.964 325.576 862.604C324.984 862.244 324.524 861.744 324.196 861.104C323.868 860.456 323.704 859.704 323.704 858.848C323.704 857.984 323.872 857.224 324.208 856.568C324.552 855.904 325.036 855.388 325.66 855.02C326.292 854.644 327.04 854.456 327.904 854.456C328.888 854.456 329.704 854.692 330.352 855.164C331 855.636 331.42 856.288 331.612 857.12H329.896C329.768 856.728 329.536 856.424 329.2 856.208C328.864 855.984 328.432 855.872 327.904 855.872C327.064 855.872 326.416 856.14 325.96 856.676C325.504 857.204 325.276 857.932 325.276 858.86C325.276 859.788 325.5 860.508 325.948 861.02C326.404 861.524 327.02 861.776 327.796 861.776C328.556 861.776 329.128 861.572 329.512 861.164C329.904 860.748 330.14 860.204 330.22 859.532H328.096V858.38H331.768V863H330.352L330.232 861.896C329.96 862.296 329.62 862.604 329.212 862.82C328.804 863.036 328.284 863.144 327.652 863.144Z" fill="white"/>
<circle cx="287" cy="859" r="16" fill="#FCA311"/>
<circle cx="287" cy="859" r="16" fill="url(#paint15_linear_0_1)"/>
<path d="M279.816 863V854.6H285.24V855.836H281.352V858.188H284.496V859.4H281.352V863H279.816ZM286.425 863V854.6H289.797C290.669 854.6 291.333 854.804 291.789 855.212C292.253 855.612 292.485 856.128 292.485 856.76C292.485 857.288 292.341 857.712 292.053 858.032C291.773 858.344 291.429 858.556 291.021 858.668C291.501 858.764 291.897 859.004 292.209 859.388C292.521 859.764 292.677 860.204 292.677 860.708C292.677 861.372 292.437 861.92 291.957 862.352C291.477 862.784 290.797 863 289.917 863H286.425ZM287.961 858.128H289.569C290.001 858.128 290.333 858.028 290.565 857.828C290.797 857.628 290.913 857.344 290.913 856.976C290.913 856.624 290.797 856.348 290.565 856.148C290.341 855.94 290.001 855.836 289.545 855.836H287.961V858.128ZM287.961 861.752H289.677C290.133 861.752 290.485 861.648 290.733 861.44C290.989 861.224 291.117 860.924 291.117 860.54C291.117 860.148 290.985 859.84 290.721 859.616C290.457 859.392 290.101 859.28 289.653 859.28H287.961V861.752Z" fill="white"/>
<defs>
<linearGradient id="paint0_linear_0_1" x1="760" y1="866.778" x2="789.245" y2="924.311" gradientUnits="userSpaceOnUse">
<stop stop-color="#09C6F9"/>
<stop offset="1" stop-color="#045DE9"/>
</linearGradient>
<linearGradient id="paint1_linear_0_1" x1="760" y1="866.778" x2="789.245" y2="924.311" gradientUnits="userSpaceOnUse">
<stop stop-color="#09C6F9"/>
<stop offset="1" stop-color="#045DE9"/>
</linearGradient>
<linearGradient id="paint2_linear_0_1" x1="760" y1="866.778" x2="789.245" y2="924.311" gradientUnits="userSpaceOnUse">
<stop stop-color="#09C6F9"/>
<stop offset="1" stop-color="#045DE9"/>
</linearGradient>
<linearGradient id="paint3_linear_0_1" x1="760" y1="866.778" x2="789.245" y2="924.311" gradientUnits="userSpaceOnUse">
<stop stop-color="#09C6F9"/>
<stop offset="1" stop-color="#045DE9"/>
</linearGradient>
<linearGradient id="paint4_linear_0_1" x1="639" y1="866.778" x2="668.245" y2="924.311" gradientUnits="userSpaceOnUse">
<stop stop-color="#09C6F9"/>
<stop offset="1" stop-color="#045DE9"/>
</linearGradient>
<linearGradient id="paint5_linear_0_1" x1="639" y1="866.778" x2="668.245" y2="924.311" gradientUnits="userSpaceOnUse">
<stop stop-color="#09C6F9"/>
<stop offset="1" stop-color="#045DE9"/>
</linearGradient>
<linearGradient id="paint6_linear_0_1" x1="639" y1="866.778" x2="668.245" y2="924.311" gradientUnits="userSpaceOnUse">
<stop stop-color="#09C6F9"/>
<stop offset="1" stop-color="#045DE9"/>
</linearGradient>
<linearGradient id="paint7_linear_0_1" x1="639" y1="866.778" x2="668.245" y2="924.311" gradientUnits="userSpaceOnUse">
<stop stop-color="#09C6F9"/>
<stop offset="1" stop-color="#045DE9"/>
</linearGradient>
<linearGradient id="paint8_linear_0_1" x1="518" y1="860.718" x2="559.936" y2="925.635" gradientUnits="userSpaceOnUse">
<stop stop-color="#09C6F9"/>
<stop offset="1" stop-color="#045DE9"/>
</linearGradient>
<linearGradient id="paint9_linear_0_1" x1="760" y1="768.778" x2="789.245" y2="826.311" gradientUnits="userSpaceOnUse">
<stop stop-color="#09C6F9"/>
<stop offset="1" stop-color="#045DE9"/>
</linearGradient>
<linearGradient id="paint10_linear_0_1" x1="633" y1="770.792" x2="655.593" y2="830.053" gradientUnits="userSpaceOnUse">
<stop stop-color="#09C6F9"/>
<stop offset="1" stop-color="#045DE9"/>
</linearGradient>
<linearGradient id="paint11_linear_0_1" x1="512" y1="770.792" x2="534.593" y2="830.053" gradientUnits="userSpaceOnUse">
<stop stop-color="#09C6F9"/>
<stop offset="1" stop-color="#045DE9"/>
</linearGradient>
<linearGradient id="paint12_linear_0_1" x1="351" y1="842.852" x2="370.497" y2="881.207" gradientUnits="userSpaceOnUse">
<stop stop-color="#09C6F9"/>
<stop offset="1" stop-color="#045DE9"/>
</linearGradient>
<linearGradient id="paint13_linear_0_1" x1="391" y1="842.852" x2="410.497" y2="881.207" gradientUnits="userSpaceOnUse">
<stop stop-color="#09C6F9"/>
<stop offset="1" stop-color="#045DE9"/>
</linearGradient>
<linearGradient id="paint14_linear_0_1" x1="311" y1="842.852" x2="330.497" y2="881.207" gradientUnits="userSpaceOnUse">
<stop stop-color="#09C6F9"/>
<stop offset="1" stop-color="#045DE9"/>
</linearGradient>
<linearGradient id="paint15_linear_0_1" x1="271" y1="842.852" x2="290.497" y2="881.207" gradientUnits="userSpaceOnUse">
<stop stop-color="#09C6F9"/>
<stop offset="1" stop-color="#045DE9"/>
</linearGradient>
</svg>